<svg width="40" height="40" viewBox="0 0 40 40" fill="none" xmlns="http://www.w3.org/2000/svg">
<path d="M21.6362 34.1891C21.6421 34.1883 21.6476 34.1872 21.6534 34.1864L21.646 34.179L21.6362 34.1891Z" fill="#0B193E"/>
<path d="M31.2947 4.27417V7.12378H32.7697V11.398H7.12402V7.12378H8.53496V4.27417H4.27441V37.0437H22.7963V34.1941H7.12402V14.2476H35.6193V4.27417H31.2947Z" fill="#0B193E"/>
<path d="M14.248 4.27422H25.6441V7.12383H14.248V4.27422ZM9.97383 2.84961H12.8234V8.54883H9.97383V2.84961ZM27.0707 2.84961H29.9203V8.54883H27.0707V2.84961ZM24.2211 22.7961V37.0438H35.6191V22.7961L29.9199 15.6723L24.2211 22.7961ZM31.957 22.7801H27.8828L29.9199 20.2336L31.957 22.7801ZM27.0703 34.1941V25.6297H32.7695V34.1941H27.0703ZM8.53516 17.0824H22.7828V19.932H8.53516V17.0824ZM8.54805 22.7949H18.4832V25.6445H8.54805V22.7949ZM8.54805 28.5074H18.5227V31.357H8.54805V28.5074Z" fill="#0B193E"/>
<path d="M21.6362 34.1891C21.6421 34.1883 21.6476 34.1872 21.6534 34.1864L21.646 34.179L21.6362 34.1891Z" fill="#0B193E"/>
<path d="M14.248 4.27417H25.6441V7.12378H14.248V4.27417ZM24.2211 22.796V37.0437H35.6191V22.796L29.9199 15.6722L24.2211 22.796ZM31.957 22.78H27.8828L29.9199 20.2335L31.957 22.78ZM27.0703 34.1941V25.6296H32.7695V34.1941H27.0703Z" fill="#CFA400"/>
</svg>
