<svg width="221" height="200" viewBox="0 0 221 200" fill="none" xmlns="http://www.w3.org/2000/svg">
<g clip-path="url(#clip0_1_204)">
<path d="M154.706 37.626C154.814 38.3749 155.21 39.0521 155.81 39.5134C156.41 39.9747 157.166 40.1838 157.917 40.0961C158.07 40.0758 158.221 40.043 158.368 39.9979L164.422 48.125L169.627 46.5037L160.129 36.2673C159.895 35.6719 159.471 35.1707 158.922 34.842C158.373 34.5133 157.73 34.3756 157.095 34.4503C156.734 34.4963 156.385 34.6129 156.069 34.7936C155.753 34.9743 155.476 35.2155 155.253 35.5034C155.03 35.7913 154.866 36.1202 154.77 36.4715C154.675 36.8227 154.649 37.1894 154.695 37.5506C154.698 37.5757 154.702 37.6009 154.706 37.626Z" fill="#A0616A"/>
<path d="M197.46 73.9236C197.46 73.9236 174.852 63.3725 169.133 56.6333L158.885 43.9095L164.082 39.6578L173.715 50.7527C173.627 53.0839 185.012 55.474 191.132 58.8721L197.46 73.9236Z" fill="#E6E6E6"/>
<path d="M203.018 194.81L198.583 194.81L196.474 177.705L203.019 177.706L203.018 194.81Z" fill="#A0616A"/>
<path d="M203.174 199.436L189.537 199.436V199.263C189.537 197.856 190.097 196.506 191.092 195.51C192.087 194.515 193.437 193.956 194.845 193.956L197.336 192.066L201.984 193.956L203.174 193.956L203.174 199.436Z" fill="#2F2E41"/>
<path d="M192.446 190.898L188.127 191.905L182.187 175.727L188.56 174.24L192.446 190.898Z" fill="#A0616A"/>
<path d="M193.649 195.367L180.369 198.466L180.33 198.298C180.01 196.927 180.248 195.485 180.991 194.29C181.734 193.094 182.922 192.243 184.293 191.923L184.293 191.923L186.29 189.516L191.245 190.301L192.404 190.03L193.649 195.367Z" fill="#2F2E41"/>
<path d="M149.163 94.9294H25.7307C24.9517 94.9204 24.1763 94.8221 23.4197 94.6365C21.1615 94.0939 19.1523 92.8053 17.7174 90.9792C16.2824 89.153 15.5056 86.8962 15.5125 84.5737V42.6189C15.5168 39.8746 16.6095 37.2441 18.5509 35.3045C20.4923 33.3648 23.1239 32.2745 25.8682 32.2727H149.163C150.825 32.2683 152.463 32.6692 153.936 33.4407C154.522 33.7447 155.076 34.1064 155.59 34.5205C156.819 35.4821 157.811 36.7115 158.492 38.115C159.173 39.5185 159.524 41.059 159.519 42.6189V84.5737C159.516 87.3193 158.424 89.9515 156.483 91.8929C154.541 93.8343 151.909 94.9263 149.163 94.9294Z" fill="#F2F2F2"/>
<path d="M140.89 94.0121C146.494 80.3911 152.398 66.9046 158.602 53.5527V76.1902C154.3 82.6108 149.53 88.6371 143.999 94.0121H140.89Z" fill="#0B193E"/>
<path d="M155.016 35.2354C143.926 55.1303 132.323 74.7226 120.206 94.0121H118.097C130.415 74.4199 142.22 54.5005 153.511 34.2539C154.044 34.5302 154.548 34.859 155.016 35.2354Z" fill="#01C2CF"/>
<path d="M73.638 56.9556C66.3912 69.7684 58.3943 82.1421 49.6889 94.0121H37.1135C45.3504 83.9775 53.5933 73.9429 61.8423 63.9083C64.2088 61.019 66.7771 57.9921 70.3268 56.8181L73.638 56.9556Z" fill="#01C2CF"/>
<path d="M56.926 54.901C55.6143 56.2677 54.3576 57.6894 53.1744 59.1662C50.5694 62.3031 48.0012 65.4676 45.4237 68.6229C43.8186 70.5858 42.2134 72.5487 40.6266 74.5116C40.1226 74.1879 39.6443 73.8261 39.1957 73.4293C36.6611 71.2295 35.0889 68.1244 34.8162 64.7794C34.5434 61.4344 35.5917 58.1156 37.7365 55.5342C39.8812 52.9529 42.9517 51.3143 46.2901 50.9696C49.6284 50.6249 52.969 51.6015 55.5959 53.6902C56.0694 54.0595 56.514 54.4643 56.926 54.901Z" fill="white"/>
<path d="M127.856 63.8166L103.751 55.0019L91.7811 50.6267C87.8828 49.2049 83.9936 47.5815 79.967 46.5542C76.4652 45.5534 72.7468 45.6012 69.272 46.6917C66.1734 47.8385 63.3377 49.5979 60.9343 51.865C59.8703 52.8464 58.8399 53.8584 57.8432 54.901C56.5315 56.2677 55.2749 57.6894 54.0916 59.1662C51.4867 62.3032 48.9184 65.4676 46.3409 68.6229C44.7358 70.5858 43.1306 72.5487 41.5438 74.5116C36.2421 80.9965 30.9711 87.4967 25.7306 94.0121C25.0256 94.0039 24.3239 93.9147 23.6393 93.7461C29.1061 86.9586 34.5973 80.1863 40.1129 73.4293C40.7458 72.6405 41.397 71.8424 42.0391 71.0536C44.7266 67.7607 47.4172 64.4709 50.1108 61.1841C52.193 58.6434 54.2568 56.0842 56.5132 53.6903C56.7149 53.4701 56.9168 53.2592 57.1277 53.039C61.7047 48.3061 67.4192 44.1235 74.2618 44.0134C78.2884 43.9492 82.1775 45.2241 85.9199 46.5725C89.9466 48.0309 93.9641 49.5168 97.9907 50.9936L122.261 59.8724L128.333 62.0922C129.406 62.4774 128.948 64.2201 127.856 63.8166Z" fill="#0B193E"/>
<path d="M0.638674 47.315V22.1274C0.640007 21.3413 0.953089 20.5878 1.50924 20.0323C2.0654 19.4767 2.8192 19.1645 3.60529 19.164H36.2445V18.5253H3.60529C2.64986 18.526 1.73371 18.9056 1.05782 19.5809C0.381929 20.2561 0.00150089 21.172 0 22.1274V47.315L0.638674 47.315Z" fill="#3F3D56"/>
<path d="M2.90428 107.954C2.25727 107.799 1.68163 107.43 1.27048 106.907C0.859332 106.383 0.636736 105.737 0.63869 105.071V79.8871H1.5949e-05V105.071C-0.00239266 105.88 0.268075 106.666 0.76765 107.301C1.26723 107.937 1.96669 108.386 2.75288 108.575C3.01629 108.639 3.28625 108.674 3.55745 108.677H36.2445V108.038H3.56135C3.33986 108.035 3.11942 108.007 2.90428 107.954Z" fill="#3F3D56"/>
<path d="M149.129 79.8871V105.071C149.128 105.858 148.815 106.612 148.259 107.168C147.703 107.724 146.949 108.037 146.163 108.038H113.523V108.677H146.163C147.118 108.676 148.035 108.295 148.711 107.62C149.387 106.944 149.767 106.027 149.768 105.071V79.8871H149.129Z" fill="#3F3D56"/>
<path d="M148.488 19.4988C148.655 19.5857 148.814 19.6893 148.961 19.8078C149.313 20.0831 149.597 20.4351 149.793 20.8371C149.988 21.2391 150.089 21.6804 150.087 22.1274V47.315H150.726V22.1274C150.728 21.5843 150.605 21.048 150.368 20.5593C150.131 20.0707 149.786 19.6427 149.358 19.3079C149.179 19.1638 148.986 19.0378 148.782 18.932C148.27 18.6634 147.699 18.5238 147.121 18.5253H114.481V19.164H147.121C147.597 19.1628 148.066 19.2777 148.488 19.4988Z" fill="#3F3D56"/>
<path d="M206.86 111.758L179.269 113.141L177.353 122.402V130.65L176.177 161.363L184.379 185.311H190.954L190.286 182.277C190.651 181.767 190.856 181.16 190.875 180.534C190.895 179.907 190.728 179.289 190.395 178.757L189.868 177.914L189.009 174.294L187.093 160.882L195.299 130.65L196.354 185.79H203.497L204.544 184.593C205.126 183.929 205.473 183.091 205.53 182.209C205.587 181.328 205.352 180.452 204.861 179.718V178.381L204.018 173.655L211.89 114.991L206.86 111.758Z" fill="#2F2E41"/>
<path d="M194.939 54.2696L185.938 54.7306L184.916 58.9964L178.38 63.9985C176.902 65.1293 175.77 66.6509 175.112 68.3913C174.453 70.1316 174.294 72.0214 174.653 73.8473L178.276 92.2782L178.041 103.814L178.563 108.538L178.524 109.253L177.724 109.908C177.179 110.353 176.803 110.971 176.656 111.659C176.509 112.347 176.601 113.065 176.917 113.694C176.917 113.694 172.972 122.221 178.679 122.655C184.386 123.088 187.916 117.154 193.369 119.461C198.821 121.768 203.689 122.039 205.184 119.461C206.679 116.884 211.227 117.485 211.773 115.233C212.32 112.981 209.551 110.433 209.18 107.077C208.808 103.721 207.85 88.0734 207.85 88.0734L210.529 72.7111C210.908 70.5362 210.57 68.2969 209.565 66.3311C208.56 64.3652 206.943 62.7795 204.958 61.8131L196.381 57.637L194.939 54.2696Z" fill="#E6E6E6"/>
<path d="M148.065 102.368C148.427 101.587 149.08 100.978 149.884 100.67C150.688 100.363 151.581 100.381 152.371 100.722C152.531 100.794 152.684 100.878 152.83 100.976L162.078 94.0888L167.224 97.5521L153.535 105.616C153.086 106.189 152.459 106.597 151.754 106.777C151.049 106.956 150.304 106.897 149.635 106.608C149.256 106.441 148.915 106.2 148.629 105.9C148.343 105.6 148.119 105.247 147.97 104.86C147.821 104.474 147.75 104.062 147.76 103.648C147.77 103.234 147.861 102.826 148.029 102.447C148.041 102.42 148.053 102.394 148.065 102.368Z" fill="#A0616A"/>
<path d="M176.8 66.0494C176.8 66.0494 164.812 87.8788 160.169 94.2992L156.645 97.0519L156.964 106.049L164.84 101.703C164.84 101.703 180.732 89.6658 180.276 84.6538C179.82 79.6417 176.8 66.0494 176.8 66.0494Z" fill="#E6E6E6"/>
<path d="M189.675 53.549C194.372 53.549 198.179 49.7414 198.179 45.0445C198.179 40.3476 194.372 36.5401 189.675 36.5401C184.978 36.5401 181.17 40.3476 181.17 45.0445C181.17 49.7414 184.978 53.549 189.675 53.549Z" fill="#A0616A"/>
<path d="M192.961 52.8519C190.52 52.7718 190.299 52.1272 187.858 52.0471C187.081 52.0216 186.164 51.9151 185.789 51.2344C185.521 50.7496 185.644 50.1391 185.88 49.6379C186.158 49.1596 186.409 48.6658 186.631 48.159C186.765 47.7615 186.801 47.3374 186.734 46.9233C186.667 46.5092 186.501 46.1176 186.249 45.7823C185.997 45.447 185.667 45.1781 185.288 44.9989C184.908 44.8196 184.491 44.7354 184.072 44.7535C183.329 44.7856 182.632 45.1349 181.891 45.1987C180.876 45.2862 178.63 41.9326 179.097 41.0267C179.552 40.1449 180.469 39.4796 180.613 38.4978C180.707 37.8556 180.442 37.2175 180.405 36.5695C180.352 35.6086 182.787 37.7752 182.341 36.9224C181.247 34.8306 191.558 32.2373 193.256 34.8575C193.89 35.8368 195.021 35.77 196.029 36.3581C196.689 36.7436 198.357 38.0734 198.736 38.9022C199.085 39.7479 199.249 40.6581 199.219 41.5723C199.235 45.824 198.587 49.7349 195.157 52.2481" fill="#2F2E41"/>
<path d="M150.563 197.478C148.257 197.681 145.934 197.367 143.765 196.558C141.596 195.749 139.635 194.465 138.026 192.801C135.921 190.582 134.477 187.726 133.08 184.964C132.674 184.161 132.253 183.329 131.826 182.533C131.349 181.664 131.143 180.673 131.235 179.687C131.327 178.7 131.712 177.764 132.341 176.998C132.943 176.233 133.761 175.665 134.689 175.369C135.617 175.072 136.612 175.06 137.547 175.335L137.75 175.394L139.585 182.551C139.858 181.484 140.446 179.078 140.817 176.721L140.848 176.524L141.031 176.605C142.946 177.453 144.747 178.538 146.391 179.836C149.304 182.172 151.672 185.114 153.333 188.459C154.994 191.803 155.906 195.469 156.007 199.201L156.012 199.424L150.563 197.478Z" fill="#F2F2F2"/>
<path d="M220.576 199.902L131.562 200C131.461 200 131.364 199.96 131.293 199.888C131.222 199.817 131.182 199.72 131.182 199.62C131.182 199.519 131.222 199.423 131.293 199.351C131.364 199.28 131.461 199.24 131.562 199.24L220.576 199.141C220.626 199.141 220.676 199.151 220.722 199.17C220.768 199.189 220.81 199.217 220.846 199.252C220.881 199.288 220.909 199.33 220.928 199.376C220.947 199.422 220.957 199.472 220.957 199.522C220.957 199.572 220.947 199.621 220.928 199.667C220.909 199.714 220.881 199.756 220.846 199.791C220.81 199.826 220.768 199.854 220.722 199.873C220.676 199.892 220.626 199.902 220.576 199.902Z" fill="#CACACA"/>
<path d="M50.9187 134.945C49.2663 134.945 47.6509 134.455 46.2769 133.537C44.903 132.619 43.8321 131.314 43.1997 129.787C42.5673 128.26 42.4019 126.58 42.7243 124.96C43.0466 123.339 43.8424 121.85 45.0109 120.682C46.1793 119.513 47.668 118.718 49.2888 118.395C50.9095 118.073 52.5894 118.238 54.1161 118.871C55.6427 119.503 56.9476 120.574 57.8657 121.948C58.7837 123.322 59.2738 124.937 59.2738 126.59C59.2738 128.806 58.3935 130.931 56.8266 132.498C55.2598 134.064 53.1346 134.945 50.9187 134.945Z" fill="#E6E6E6"/>
<path d="M54.2154 125.766H51.7429V123.293C51.7424 123.075 51.6554 122.865 51.5009 122.711C51.3464 122.557 51.137 122.47 50.9187 122.47C50.7004 122.47 50.491 122.557 50.3365 122.711C50.182 122.865 50.0949 123.075 50.0945 123.293V125.766H47.622C47.4037 125.766 47.1945 125.853 47.0403 126.007C46.886 126.162 46.7994 126.371 46.7994 126.59C46.7994 126.808 46.886 127.017 47.0403 127.172C47.1945 127.326 47.4037 127.413 47.622 127.414H50.0945V129.886C50.0949 130.105 50.182 130.314 50.3365 130.468C50.491 130.622 50.7004 130.709 50.9187 130.709C51.137 130.709 51.3464 130.622 51.5009 130.468C51.6554 130.314 51.7424 130.105 51.7429 129.886V127.414H54.2154C54.3237 127.414 54.4311 127.393 54.5312 127.352C54.6314 127.31 54.7225 127.25 54.7992 127.173C54.8759 127.096 54.9367 127.006 54.9782 126.905C55.0198 126.805 55.0411 126.698 55.0411 126.59C55.0411 126.481 55.0198 126.374 54.9782 126.274C54.9367 126.174 54.8759 126.083 54.7992 126.006C54.7225 125.93 54.6314 125.869 54.5312 125.828C54.4311 125.786 54.3237 125.765 54.2154 125.766Z" fill="white"/>
<path d="M75.3629 134.945C73.7105 134.945 72.0951 134.455 70.7211 133.537C69.3472 132.619 68.2763 131.314 67.6439 129.787C67.0116 128.26 66.8461 126.58 67.1685 124.96C67.4909 123.339 68.2866 121.85 69.4551 120.682C70.6235 119.513 72.1123 118.718 73.733 118.395C75.3537 118.073 77.0336 118.238 78.5603 118.871C80.087 119.503 81.3918 120.574 82.3099 121.948C83.228 123.322 83.718 124.937 83.718 126.59C83.718 128.806 82.8377 130.931 81.2708 132.498C79.704 134.064 77.5788 134.945 75.3629 134.945Z" fill="#E6E6E6"/>
<path d="M78.6597 125.766H72.0663C71.848 125.766 71.6388 125.853 71.4846 126.007C71.3304 126.162 71.2438 126.371 71.2438 126.59C71.2438 126.808 71.3304 127.017 71.4846 127.172C71.6388 127.326 71.848 127.413 72.0663 127.414H78.6597C78.8783 127.414 79.0879 127.327 79.2425 127.172C79.397 127.018 79.4838 126.808 79.4838 126.59C79.4838 126.371 79.397 126.161 79.2425 126.007C79.0879 125.852 78.8783 125.766 78.6597 125.766Z" fill="white"/>
<path d="M99.8072 134.945C98.1547 134.945 96.5393 134.455 95.1654 133.537C93.7914 132.619 92.7205 131.314 92.0881 129.787C91.4558 128.26 91.2903 126.58 91.6127 124.96C91.9351 123.339 92.7308 121.85 93.8993 120.682C95.0678 119.513 96.5565 118.718 98.1772 118.395C99.7979 118.073 101.478 118.238 103.005 118.871C104.531 119.503 105.836 120.574 106.754 121.948C107.672 123.322 108.162 124.937 108.162 126.59C108.162 128.806 107.282 130.931 105.715 132.498C104.148 134.064 102.023 134.945 99.8072 134.945Z" fill="#E6E6E6"/>
<path d="M104.508 126.193L102.139 122.736C102.087 122.659 102.02 122.594 101.943 122.544C101.866 122.494 101.779 122.459 101.689 122.442C101.598 122.425 101.505 122.426 101.414 122.445C101.324 122.464 101.239 122.501 101.162 122.553C101.086 122.605 101.021 122.672 100.971 122.749C100.921 122.826 100.886 122.913 100.869 123.004C100.852 123.094 100.853 123.187 100.872 123.278C100.891 123.368 100.928 123.454 100.98 123.53L102.512 125.766H96.5106C96.4023 125.766 96.2952 125.787 96.1952 125.828C96.0952 125.87 96.0043 125.93 95.9278 126.007C95.8513 126.083 95.7905 126.174 95.7491 126.274C95.7077 126.374 95.6864 126.481 95.6864 126.59C95.6864 126.698 95.7077 126.805 95.7491 126.905C95.7905 127.005 95.8513 127.096 95.9278 127.172C96.0043 127.249 96.0952 127.31 96.1952 127.351C96.2952 127.393 96.4023 127.414 96.5106 127.414H102.587L100.98 129.76C100.875 129.913 100.835 130.103 100.869 130.286C100.903 130.469 101.009 130.631 101.162 130.736C101.316 130.842 101.505 130.882 101.689 130.847C101.872 130.813 102.034 130.708 102.139 130.554L104.508 127.097C104.585 126.958 104.625 126.803 104.625 126.645C104.625 126.487 104.585 126.331 104.508 126.193Z" fill="white"/>
<path d="M75.3629 17.7422C80.2623 17.7422 84.2341 13.7705 84.2341 8.87112C84.2341 3.97174 80.2623 0 75.3629 0C70.4636 0 66.4918 3.97174 66.4918 8.87112C66.4918 13.7705 70.4636 17.7422 75.3629 17.7422Z" fill="#01C2CF"/>
<path d="M74.1528 13.4881C73.9996 13.4881 73.8485 13.4524 73.7115 13.3839C73.5745 13.3154 73.4553 13.2159 73.3635 13.0933L70.9433 9.86637C70.8652 9.76272 70.8084 9.6447 70.7761 9.51907C70.7437 9.39343 70.7364 9.26265 70.7547 9.1342C70.7729 9.00576 70.8163 8.88217 70.8823 8.77051C70.9484 8.65885 71.0358 8.56131 71.1396 8.48347C71.2434 8.40564 71.3615 8.34903 71.4872 8.31689C71.6129 8.28476 71.7437 8.27772 71.8721 8.29618C72.0005 8.31465 72.124 8.35826 72.2356 8.42452C72.3471 8.49077 72.4445 8.57836 72.5221 8.68229L74.1055 10.7933L78.1722 4.69337C78.244 4.58542 78.3364 4.49268 78.4441 4.42046C78.5518 4.34823 78.6726 4.29794 78.7998 4.27245C78.9269 4.24697 79.0578 4.24679 79.185 4.27192C79.3122 4.29706 79.4332 4.34702 79.5411 4.41894C79.649 4.49087 79.7417 4.58335 79.8138 4.6911C79.8859 4.79885 79.9361 4.91976 79.9615 5.04692C79.9868 5.17408 79.9869 5.30499 79.9616 5.43217C79.9364 5.55935 79.8863 5.68032 79.8143 5.78814L74.974 13.0487C74.8864 13.18 74.7686 13.2884 74.6305 13.3648C74.4924 13.4412 74.338 13.4834 74.1803 13.4878C74.1711 13.488 74.162 13.4881 74.1528 13.4881Z" fill="white"/>
</g>
<defs>
<clipPath id="clip0_1_204">
<rect width="220.956" height="200" fill="white"/>
</clipPath>
</defs>
</svg>
