<svg width="257" height="200" viewBox="0 0 257 200" fill="none" xmlns="http://www.w3.org/2000/svg">
<g clip-path="url(#clip0_2_237)">
<path d="M9.87504 0C7.25693 0.00297971 4.74691 1.04434 2.89562 2.89563C1.04434 4.74691 0.00297643 7.25695 0 9.87506V190.125C0.0030198 192.743 1.0444 195.253 2.89568 197.104C4.74696 198.956 7.25696 199.997 9.87504 200H108.607C111.225 199.997 113.735 198.956 115.586 197.104C117.437 195.253 118.479 192.743 118.482 190.125V9.87504C118.479 7.25693 117.437 4.74691 115.586 2.89562C113.735 1.04434 111.225 0.00297888 108.607 0H9.87504Z" fill="#E6E6E6"/>
<path d="M13.1025 5.61053C11.1162 5.61279 9.21193 6.40285 7.80741 7.80738C6.40288 9.2119 5.61282 11.1162 5.61057 13.1025V186.897C5.61279 188.884 6.40284 190.788 7.80737 192.192C9.2119 193.597 11.1162 194.387 13.1025 194.389H105.379C107.366 194.387 109.27 193.597 110.674 192.192C112.079 190.788 112.869 188.884 112.871 186.897V13.1025C112.869 11.1162 112.079 9.21191 110.674 7.80738C109.27 6.40285 107.366 5.6128 105.379 5.61053H13.1025Z" fill="white"/>
<path d="M103.795 42.2402H14.6864C14.2489 42.2397 13.8295 42.0656 13.5201 41.7563C13.2108 41.4469 13.0367 41.0275 13.0362 40.59V18.4859C13.0367 18.0484 13.2108 17.6289 13.5201 17.3196C13.8295 17.0102 14.2489 16.8362 14.6864 16.8357H103.795C104.233 16.8362 104.652 17.0102 104.962 17.3196C105.271 17.6289 105.445 18.0484 105.446 18.4859V40.59C105.445 41.0275 105.271 41.4469 104.962 41.7563C104.652 42.0656 104.233 42.2397 103.795 42.2402ZM14.6864 17.4957C14.4239 17.496 14.1722 17.6004 13.9866 17.7861C13.801 17.9717 13.6966 18.2233 13.6963 18.4859V40.59C13.6966 40.8525 13.801 41.1042 13.9866 41.2898C14.1722 41.4754 14.4239 41.5798 14.6864 41.5801H103.795C104.058 41.5798 104.31 41.4754 104.495 41.2898C104.681 41.1042 104.785 40.8525 104.786 40.59V18.4859C104.785 18.2234 104.681 17.9717 104.495 17.7861C104.31 17.6004 104.058 17.496 103.795 17.4958L14.6864 17.4957Z" fill="#E6E6E6"/>
<path d="M103.795 129.699H14.6864C14.2489 129.698 13.8295 129.524 13.5201 129.215C13.2108 128.906 13.0367 128.486 13.0362 128.049V87.1327C13.0367 86.6952 13.2108 86.2758 13.5201 85.9664C13.8295 85.6571 14.2489 85.4831 14.6864 85.4825H103.795C104.233 85.4831 104.652 85.6571 104.962 85.9664C105.271 86.2758 105.445 86.6952 105.446 87.1327V128.049C105.445 128.486 105.271 128.906 104.962 129.215C104.652 129.524 104.233 129.698 103.795 129.699ZM14.6864 86.1426C14.4239 86.1429 14.1722 86.2473 13.9866 86.4329C13.801 86.6185 13.6966 86.8702 13.6963 87.1327V128.049C13.6966 128.311 13.801 128.563 13.9866 128.749C14.1722 128.934 14.4239 129.039 14.6864 129.039H103.795C104.058 129.039 104.31 128.934 104.495 128.749C104.681 128.563 104.785 128.311 104.786 128.049V87.1327C104.785 86.8702 104.681 86.6185 104.495 86.4329C104.31 86.2473 104.058 86.1429 103.795 86.1426L14.6864 86.1426Z" fill="#E6E6E6"/>
<path d="M103.135 76.5636H63.5313C63.0938 76.5631 62.6743 76.3891 62.365 76.0797C62.0556 75.7703 61.8816 75.3509 61.8811 74.9134V52.8093C61.8816 52.3718 62.0556 51.9524 62.365 51.643C62.6743 51.3336 63.0938 51.1596 63.5313 51.1591H103.135C103.573 51.1596 103.992 51.3337 104.302 51.643C104.611 51.9524 104.785 52.3718 104.786 52.8093V74.9135C104.785 75.3509 104.611 75.7704 104.302 76.0797C103.992 76.3891 103.573 76.5631 103.135 76.5636ZM63.5313 51.8192C63.2688 51.8195 63.0171 51.9239 62.8315 52.1095C62.6458 52.2951 62.5414 52.5468 62.5412 52.8093V74.9134C62.5414 75.1759 62.6458 75.4276 62.8315 75.6132C63.0171 75.7989 63.2688 75.9033 63.5313 75.9035H103.135C103.398 75.9033 103.65 75.7989 103.835 75.6132C104.021 75.4276 104.125 75.1759 104.125 74.9134V52.8093C104.125 52.5468 104.021 52.2951 103.835 52.1095C103.65 51.9238 103.398 51.8194 103.135 51.8192L63.5313 51.8192Z" fill="#E6E6E6"/>
<path d="M54.2905 183.164H14.6864C14.2489 183.164 13.8295 182.99 13.5201 182.68C13.2108 182.371 13.0367 181.952 13.0362 181.514V140.268C13.0367 139.831 13.2108 139.411 13.5201 139.102C13.8295 138.792 14.2489 138.618 14.6864 138.618H54.2905C54.728 138.618 55.1474 138.792 55.4568 139.102C55.7661 139.411 55.9402 139.831 55.9407 140.268V181.514C55.9402 181.952 55.7661 182.371 55.4568 182.68C55.1474 182.99 54.728 183.164 54.2905 183.164ZM14.6864 139.278C14.4239 139.278 14.1722 139.383 13.9866 139.568C13.801 139.754 13.6966 140.006 13.6963 140.268V181.514C13.6966 181.777 13.801 182.028 13.9866 182.214C14.1722 182.4 14.4239 182.504 14.6864 182.504H54.2905C54.553 182.504 54.8047 182.4 54.9903 182.214C55.1759 182.028 55.2803 181.777 55.2806 181.514V140.268C55.2803 140.006 55.1759 139.754 54.9903 139.568C54.8047 139.383 54.553 139.278 54.2905 139.278H14.6864Z" fill="#E6E6E6"/>
<path d="M103.135 183.164H63.5313C63.0938 183.164 62.6743 182.99 62.365 182.68C62.0556 182.371 61.8816 181.952 61.8811 181.514V140.268C61.8816 139.831 62.0556 139.411 62.365 139.102C62.6744 138.792 63.0938 138.618 63.5313 138.618H103.135C103.573 138.618 103.992 138.792 104.302 139.102C104.611 139.411 104.785 139.831 104.786 140.268V181.514C104.785 181.952 104.611 182.371 104.302 182.68C103.992 182.99 103.573 183.164 103.135 183.164ZM63.5313 139.278C63.2688 139.278 63.0171 139.383 62.8315 139.568C62.6458 139.754 62.5414 140.006 62.5412 140.268V181.514C62.5414 181.777 62.6458 182.028 62.8315 182.214C63.0171 182.4 63.2688 182.504 63.5313 182.504H103.135C103.398 182.504 103.65 182.4 103.835 182.214C104.021 182.028 104.125 181.777 104.125 181.514V140.268C104.125 140.006 104.021 139.754 103.835 139.568C103.65 139.383 103.398 139.278 103.135 139.278H63.5313Z" fill="#E6E6E6"/>
<path d="M27.872 106.699C31.5844 106.699 34.5939 103.689 34.5939 99.9769C34.5939 96.2645 31.5844 93.255 27.872 93.255C24.1596 93.255 21.1501 96.2645 21.1501 99.9769C21.1501 103.689 24.1596 106.699 27.872 106.699Z" fill="#E6E6E6"/>
<path d="M43.3964 95.4957C43.0993 95.4957 42.8144 95.6137 42.6043 95.8238C42.3942 96.0339 42.2761 96.3189 42.2761 96.616C42.2761 96.9131 42.3942 97.1981 42.6043 97.4082C42.8144 97.6183 43.0993 97.7363 43.3964 97.7363H96.2114C96.508 97.7356 96.7923 97.6173 97.0018 97.4072C97.2114 97.1972 97.3291 96.9126 97.3291 96.616C97.3291 96.3193 97.2114 96.0348 97.0018 95.8247C96.7923 95.6147 96.508 95.4964 96.2114 95.4957H43.3964Z" fill="#E6E6E6"/>
<path d="M43.3964 102.218C43.0995 102.217 42.8146 102.335 42.6043 102.544C42.394 102.754 42.2755 103.039 42.2749 103.335C42.2743 103.632 42.3916 103.917 42.601 104.128C42.8104 104.338 43.0948 104.457 43.3917 104.458H66.1229C66.42 104.458 66.7049 104.34 66.915 104.13C67.1251 103.92 67.2432 103.635 67.2432 103.338C67.2432 103.041 67.1251 102.756 66.915 102.546C66.7049 102.336 66.42 102.218 66.1229 102.218H43.3964Z" fill="#E6E6E6"/>
<path d="M22.7162 112.964C21.864 112.964 21.1705 113.467 21.1705 114.084C21.1705 114.702 21.864 115.205 22.7162 115.205H95.5845C96.4367 115.205 97.1302 114.702 97.1302 114.084C97.1302 113.467 96.4367 112.964 95.5845 112.964H22.7162Z" fill="#E6E6E6"/>
<path d="M22.7162 119.686C21.864 119.686 21.1705 120.188 21.1705 120.806C21.1705 121.424 21.864 121.926 22.7162 121.926H95.5845C96.4367 121.926 97.1302 121.424 97.1302 120.806C97.1302 120.188 96.4367 119.686 95.5845 119.686H22.7162Z" fill="#E6E6E6"/>
<path d="M28.5321 35.4117C32.2445 35.4117 35.254 32.4022 35.254 28.6898C35.254 24.9774 32.2445 21.9679 28.5321 21.9679C24.8197 21.9679 21.8102 24.9774 21.8102 28.6898C21.8102 32.4022 24.8197 35.4117 28.5321 35.4117Z" fill="#E6E6E6"/>
<path d="M44.0565 24.2086C43.7598 24.2093 43.4755 24.3276 43.266 24.5376C43.0565 24.7476 42.9388 25.0322 42.9388 25.3289C42.9388 25.6255 43.0565 25.9101 43.266 26.1201C43.4755 26.3301 43.7598 26.4485 44.0565 26.4492H96.8714C97.0186 26.4496 97.1645 26.4211 97.3007 26.3651C97.4369 26.3092 97.5607 26.227 97.665 26.1231C97.7694 26.0193 97.8523 25.8959 97.909 25.7601C97.9656 25.6242 97.9949 25.4785 97.9953 25.3312C97.9956 25.184 97.9669 25.0382 97.9108 24.9021C97.8547 24.766 97.7723 24.6422 97.6684 24.538C97.5645 24.4337 97.441 24.3509 97.3051 24.2944C97.1691 24.2379 97.0234 24.2087 96.8762 24.2086C96.8746 24.2086 96.873 24.2086 96.8714 24.2086H44.0565Z" fill="#E6E6E6"/>
<path d="M44.0565 30.9304C43.7597 30.9309 43.4752 31.0492 43.2655 31.2592C43.0558 31.4693 42.938 31.7539 42.938 32.0507C42.938 32.3475 43.0558 32.6322 43.2655 32.8423C43.4752 33.0523 43.7597 33.1706 44.0565 33.1711H66.7829C67.0801 33.1717 67.3653 33.0543 67.5758 32.8446C67.7863 32.6349 67.905 32.3502 67.9056 32.0531C67.9062 31.756 67.7888 31.4708 67.5792 31.2602C67.3695 31.0497 67.0848 30.931 66.7877 30.9304C66.7861 30.9304 66.7845 30.9304 66.7829 30.9304H44.0565Z" fill="#E6E6E6"/>
<path d="M54.2554 76.5676H17.1034L25.8465 61.4238C26.0032 61.1524 26.2286 60.927 26.5 60.7703C26.7714 60.6136 27.0793 60.5311 27.3927 60.5311C27.7061 60.5311 28.014 60.6136 28.2854 60.7703C28.5568 60.927 28.7822 61.1524 28.9389 61.4238L32.6739 67.893L39.0246 56.8933C39.2208 56.5535 39.503 56.2713 39.8428 56.0751C40.1826 55.8789 40.5681 55.7756 40.9605 55.7756C41.3529 55.7756 41.7383 55.8789 42.0782 56.0751C42.418 56.2713 42.7002 56.5535 42.8963 56.8933L54.2554 76.5676ZM18.2465 75.9076H53.1123L42.3246 57.2233C42.1864 56.9838 41.9876 56.785 41.7481 56.6467C41.5087 56.5084 41.237 56.4356 40.9605 56.4356C40.684 56.4356 40.4124 56.5084 40.1729 56.6467C39.9334 56.785 39.7346 56.9838 39.5964 57.2233L32.6739 69.2131L28.3672 61.7539C28.2685 61.5828 28.1264 61.4407 27.9554 61.3419C27.7843 61.2431 27.5903 61.1911 27.3927 61.1911C27.1952 61.1911 27.0011 61.2431 26.8301 61.3419C26.659 61.4407 26.517 61.5828 26.4183 61.7539L18.2465 75.9076Z" fill="#E6E6E6"/>
<path d="M101.78 76.5676H64.6281L73.3712 61.4238C73.5279 61.1524 73.7533 60.927 74.0247 60.7703C74.2962 60.6136 74.604 60.5311 74.9175 60.5311C75.2309 60.5311 75.5388 60.6136 75.8102 60.7703C76.0816 60.927 76.307 61.1524 76.4637 61.4238L80.1986 67.893L86.5494 56.8933C86.7455 56.5535 87.0277 56.2713 87.3675 56.0751C87.7074 55.8789 88.0928 55.7756 88.4852 55.7756C88.8776 55.7756 89.2631 55.8789 89.6029 56.0751C89.9427 56.2713 90.2249 56.5535 90.4211 56.8933L101.78 76.5676ZM65.7713 75.9076H100.637L89.8494 57.2233C89.7111 56.9838 89.5123 56.785 89.2728 56.6467C89.0334 56.5084 88.7618 56.4356 88.4852 56.4356C88.2087 56.4356 87.9371 56.5084 87.6976 56.6467C87.4582 56.785 87.2593 56.9838 87.1211 57.2233L80.1986 69.2131L75.8919 61.7539C75.7932 61.5828 75.6512 61.4407 75.4801 61.3419C75.309 61.2431 75.115 61.1911 74.9175 61.1911C74.7199 61.1911 74.5259 61.2431 74.3548 61.3419C74.1838 61.4407 74.0417 61.5828 73.943 61.7539L65.7713 75.9076Z" fill="#E6E6E6"/>
<path d="M54.2905 76.5636H14.6864C14.2489 76.5631 13.8295 76.3891 13.5201 76.0797C13.2108 75.7703 13.0367 75.3509 13.0362 74.9134V52.8093C13.0367 52.3718 13.2108 51.9524 13.5201 51.643C13.8295 51.3336 14.2489 51.1596 14.6864 51.1591H54.2905C54.728 51.1596 55.1474 51.3336 55.4568 51.643C55.7661 51.9524 55.9402 52.3718 55.9407 52.8093V74.9135C55.9401 75.3509 55.7661 75.7704 55.4568 76.0797C55.1474 76.3891 54.728 76.5631 54.2905 76.5636ZM14.6864 51.8192C14.4239 51.8195 14.1722 51.9239 13.9866 52.1095C13.801 52.2951 13.6966 52.5468 13.6963 52.8093V74.9134C13.6966 75.1759 13.801 75.4276 13.9866 75.6132C14.1722 75.7989 14.4239 75.9033 14.6864 75.9035H54.2905C54.553 75.9033 54.8047 75.7989 54.9903 75.6132C55.1759 75.4276 55.2803 75.1759 55.2806 74.9134V52.8093C55.2803 52.5468 55.1759 52.2951 54.9903 52.1095C54.8047 51.9238 54.553 51.8194 54.2905 51.8192L14.6864 51.8192Z" fill="#E6E6E6"/>
<path d="M23.1252 147.124C22.978 147.123 22.8321 147.152 22.6959 147.208C22.5598 147.264 22.4361 147.347 22.3318 147.451C22.2276 147.555 22.1449 147.679 22.0885 147.815C22.0321 147.951 22.0031 148.097 22.0031 148.244C22.0031 148.391 22.0321 148.537 22.0885 148.673C22.1449 148.809 22.2276 148.933 22.3318 149.037C22.4361 149.141 22.5598 149.223 22.6959 149.279C22.8321 149.336 22.978 149.364 23.1252 149.364H45.8517C45.9989 149.364 46.1448 149.336 46.281 149.279C46.4171 149.223 46.5408 149.141 46.6451 149.037C46.7493 148.933 46.832 148.809 46.8884 148.673C46.9448 148.537 46.9738 148.391 46.9738 148.244C46.9738 148.097 46.9448 147.951 46.8884 147.815C46.832 147.679 46.7493 147.555 46.6451 147.451C46.5408 147.347 46.4171 147.264 46.281 147.208C46.1448 147.152 45.9989 147.123 45.8517 147.124H23.1252Z" fill="#E6E6E6"/>
<path d="M23.1252 153.724C22.8281 153.724 22.5431 153.842 22.333 154.052C22.1229 154.262 22.0049 154.547 22.0049 154.845C22.0049 155.142 22.1229 155.427 22.333 155.637C22.5431 155.847 22.8281 155.965 23.1252 155.965H45.8517C46.1488 155.965 46.4337 155.847 46.6438 155.637C46.8539 155.427 46.972 155.142 46.972 154.845C46.972 154.547 46.8539 154.262 46.6438 154.052C46.4337 153.842 46.1488 153.724 45.8517 153.724H23.1252Z" fill="#E6E6E6"/>
<path d="M34.4885 174.659C33.0938 174.659 31.7304 174.245 30.5707 173.47C29.411 172.695 28.5072 171.594 27.9734 170.305C27.4397 169.017 27.3 167.599 27.5721 166.231C27.8442 164.863 28.5159 163.606 29.5021 162.62C30.4883 161.634 31.7448 160.962 33.1128 160.69C34.4807 160.418 35.8986 160.558 37.1872 161.092C38.4757 161.625 39.5771 162.529 40.352 163.689C41.1268 164.849 41.5404 166.212 41.5404 167.607C41.5383 169.476 40.7947 171.269 39.4726 172.591C38.1506 173.913 36.3581 174.656 34.4885 174.659ZM34.4885 161.215C33.2243 161.215 31.9885 161.59 30.9374 162.292C29.8863 162.994 29.067 163.993 28.5833 165.161C28.0995 166.329 27.9729 167.614 28.2195 168.854C28.4662 170.094 29.0749 171.232 29.9688 172.126C30.8628 173.02 32.0017 173.629 33.2416 173.876C34.4815 174.122 35.7666 173.996 36.9346 173.512C38.1025 173.028 39.1008 172.209 39.8031 171.158C40.5055 170.107 40.8803 168.871 40.8803 167.607C40.8784 165.912 40.2043 164.287 39.006 163.089C37.8078 161.891 36.1831 161.217 34.4885 161.215Z" fill="#E6E6E6"/>
<path d="M94.6965 174.659C94.8438 174.659 94.9897 174.63 95.1258 174.574C95.2619 174.518 95.3857 174.435 95.4899 174.331C95.5941 174.227 95.6768 174.103 95.7332 173.967C95.7897 173.831 95.8187 173.686 95.8187 173.538C95.8187 173.391 95.7897 173.245 95.7332 173.109C95.6768 172.973 95.5941 172.85 95.4899 172.745C95.3857 172.641 95.2619 172.559 95.1258 172.503C94.9897 172.447 94.8438 172.418 94.6965 172.418H71.9701C71.6733 172.418 71.3888 172.537 71.1791 172.747C70.9694 172.957 70.8516 173.241 70.8516 173.538C70.8516 173.835 70.9694 174.12 71.1791 174.33C71.3888 174.54 71.6733 174.658 71.9701 174.659H94.6965Z" fill="#E6E6E6"/>
<path d="M94.6965 168.058C94.8438 168.058 94.9897 168.029 95.1258 167.973C95.2619 167.917 95.3857 167.834 95.4899 167.73C95.5941 167.626 95.6768 167.503 95.7332 167.367C95.7897 167.231 95.8187 167.085 95.8187 166.938C95.8187 166.79 95.7897 166.644 95.7332 166.508C95.6768 166.372 95.5941 166.249 95.4899 166.145C95.3857 166.041 95.2619 165.958 95.1258 165.902C94.9897 165.846 94.8438 165.817 94.6965 165.817H71.9701C71.673 165.817 71.388 165.935 71.1779 166.145C70.9678 166.356 70.8498 166.64 70.8498 166.938C70.8498 167.235 70.9678 167.52 71.1779 167.73C71.388 167.94 71.673 168.058 71.9701 168.058H94.6965Z" fill="#E6E6E6"/>
<path d="M83.3333 147.124C84.728 147.124 86.0914 147.537 87.2511 148.312C88.4107 149.087 89.3146 150.188 89.8483 151.477C90.3821 152.765 90.5217 154.183 90.2496 155.551C89.9775 156.919 89.3059 158.176 88.3197 159.162C87.3335 160.148 86.0769 160.82 84.709 161.092C83.3411 161.364 81.9232 161.224 80.6346 160.691C79.3461 160.157 78.2447 159.253 77.4698 158.093C76.695 156.934 76.2814 155.57 76.2814 154.175C76.2835 152.306 77.0271 150.513 78.3492 149.191C79.6712 147.869 81.4636 147.126 83.3333 147.124ZM83.3333 160.567C84.5974 160.567 85.8332 160.192 86.8844 159.49C87.9355 158.788 88.7547 157.789 89.2385 156.621C89.7223 155.454 89.8489 154.168 89.6023 152.928C89.3557 151.689 88.7469 150.55 87.853 149.656C86.9591 148.762 85.8202 148.153 84.5803 147.906C83.3404 147.66 82.0552 147.786 80.8873 148.27C79.7193 148.754 78.721 149.573 78.0187 150.624C77.3163 151.675 76.9415 152.911 76.9415 154.175C76.9434 155.87 77.6175 157.495 78.8157 158.693C80.014 159.891 81.6386 160.565 83.3333 160.567Z" fill="#E6E6E6"/>
<path opacity="0.3" d="M72.5306 57.5557C81.7496 57.5557 89.223 50.0823 89.223 40.8633C89.223 31.6444 81.7496 24.1709 72.5306 24.1709C63.3116 24.1709 55.8382 31.6444 55.8382 40.8633C55.8382 50.0823 63.3116 57.5557 72.5306 57.5557Z" fill="#0B193E"/>
<path opacity="0.3" d="M72.5306 51.9916C78.6766 51.9916 83.6589 47.0093 83.6589 40.8633C83.6589 34.7174 78.6766 29.735 72.5306 29.735C66.3846 29.735 61.4023 34.7174 61.4023 40.8633C61.4023 47.0093 66.3846 51.9916 72.5306 51.9916Z" fill="#0B193E"/>
<path d="M72.5306 48.5913C76.7986 48.5913 80.2586 45.1314 80.2586 40.8634C80.2586 36.5953 76.7986 33.1354 72.5306 33.1354C68.2625 33.1354 64.8026 36.5953 64.8026 40.8634C64.8026 45.1314 68.2625 48.5913 72.5306 48.5913Z" fill="#0B193E"/>
<path opacity="0.3" d="M34.509 166.032C41.3244 166.032 46.8494 160.507 46.8494 153.692C46.8494 146.876 41.3244 141.351 34.509 141.351C27.6935 141.351 22.1685 146.876 22.1685 153.692C22.1685 160.507 27.6935 166.032 34.509 166.032Z" fill="#0B193E"/>
<path opacity="0.3" d="M34.509 161.919C39.0526 161.919 42.7359 158.235 42.7359 153.692C42.7359 149.148 39.0526 145.465 34.509 145.465C29.9653 145.465 26.282 149.148 26.282 153.692C26.282 158.235 29.9653 161.919 34.509 161.919Z" fill="#0B193E"/>
<path d="M34.509 159.405C37.6643 159.405 40.2221 156.847 40.2221 153.692C40.2221 150.537 37.6643 147.979 34.509 147.979C31.3537 147.979 28.7958 150.537 28.7958 153.692C28.7958 156.847 31.3537 159.405 34.509 159.405Z" fill="#0B193E"/>
<path opacity="0.3" d="M85.8227 119.664C93.6624 119.664 100.018 113.309 100.018 105.469C100.018 97.6294 93.6624 91.274 85.8227 91.274C77.9829 91.274 71.6276 97.6294 71.6276 105.469C71.6276 113.309 77.9829 119.664 85.8227 119.664Z" fill="#0B193E"/>
<path opacity="0.3" d="M85.8227 114.933C91.0492 114.933 95.2861 110.696 95.2861 105.469C95.2861 100.243 91.0492 96.0058 85.8227 96.0058C80.5962 96.0058 76.3593 100.243 76.3593 105.469C76.3593 110.696 80.5962 114.933 85.8227 114.933Z" fill="#01C2CF"/>
<path d="M91.8945 105.469C91.8945 108.823 89.1761 111.541 85.8227 111.541C82.4693 111.541 79.7509 108.823 79.7509 105.469C79.7509 102.116 82.4693 99.3974 85.8227 99.3974C89.1761 99.3974 91.8945 102.116 91.8945 105.469Z" fill="#01C2CF" stroke="#01C2CF"/>
<path d="M151.808 127.51L148.887 132.443C148.599 132.931 148.201 133.345 147.726 133.654C147.25 133.963 146.71 134.158 146.147 134.224C145.584 134.29 145.013 134.226 144.479 134.035C143.945 133.844 143.462 133.533 143.068 133.125C142.702 132.745 142.421 132.291 142.245 131.794C142.07 131.296 142.003 130.767 142.049 130.241C142.096 129.715 142.255 129.206 142.516 128.747C142.776 128.288 143.132 127.891 143.56 127.582L148.31 124.148C152.87 117.974 155.491 107.481 157.724 96.1262L167.004 97.2146C164.612 106.502 158.892 116.799 151.808 127.51Z" fill="#FFB8B8"/>
<path d="M152.957 99.438L168.048 103.717V77.3651L166.045 78.0132C164.295 78.5793 162.705 79.5537 161.406 80.8559C160.107 82.158 159.136 83.7506 158.575 85.5019L152.957 99.438Z" fill="#E6E6E6"/>
<path d="M183.814 193.811L178.183 193.586C176.334 174.555 173.973 157.272 169.174 148.314C164.526 153.292 163.471 169.02 162.693 190.432H157.237C151.501 165.755 150.052 148.259 157.237 131.646H186.517L183.814 193.811Z" fill="#2F2E41"/>
<path d="M163.033 194.249L153.259 199.242C152.998 199.375 152.711 199.454 152.418 199.473C152.125 199.492 151.831 199.45 151.554 199.351C151.278 199.252 151.024 199.097 150.81 198.896C150.595 198.696 150.424 198.453 150.307 198.184C150.099 197.705 150.072 197.168 150.231 196.671C150.389 196.174 150.723 195.752 151.17 195.483L152.503 194.68L156.213 189.132L162.538 188.633L163.695 189.741C164.017 190.05 164.261 190.431 164.405 190.853C164.55 191.274 164.591 191.725 164.527 192.166C164.462 192.607 164.292 193.026 164.033 193.389C163.773 193.751 163.43 194.046 163.033 194.249Z" fill="#2F2E41"/>
<path d="M182.894 198.928L171.923 199.236C171.629 199.244 171.337 199.192 171.064 199.083C170.791 198.974 170.544 198.81 170.337 198.602C170.129 198.394 169.967 198.145 169.86 197.871C169.752 197.598 169.702 197.305 169.712 197.012C169.73 196.491 169.936 195.993 170.293 195.613C170.65 195.233 171.133 194.995 171.652 194.944L173.2 194.791L178.935 191.377L184.861 193.644L185.429 195.142C185.587 195.559 185.643 196.008 185.592 196.451C185.542 196.894 185.386 197.318 185.138 197.689C184.89 198.059 184.556 198.365 184.166 198.581C183.776 198.796 183.339 198.915 182.894 198.928Z" fill="#2F2E41"/>
<path d="M171.739 72.4923C175.806 72.4923 179.103 69.1956 179.103 65.1288C179.103 61.0621 175.806 57.7653 171.739 57.7653C167.673 57.7653 164.376 61.0621 164.376 65.1288C164.376 69.1956 167.673 72.4923 171.739 72.4923Z" fill="#FFB8B8"/>
<path d="M183.814 76.9146L168.498 82.7707C169.39 77.9621 169.402 73.4321 167.935 69.3692L177.733 67.68C176.911 71.9039 179.458 74.7731 183.814 76.9146Z" fill="#FFB8B8"/>
<path d="M190.121 135.926C176.64 138.485 165.786 136.843 157.011 131.872C161.07 117.889 161.647 102.419 160.585 86.2473C160.48 84.6303 160.88 83.0207 161.731 81.6413C162.581 80.2619 163.839 79.181 165.331 78.5481L169.174 76.9146C171.246 81.6239 176.023 78.9101 181.111 75.338L187.4 78.1165C188.398 78.5573 189.238 79.2926 189.807 80.224C190.376 81.1554 190.647 82.2384 190.583 83.328C189.326 104.809 187.637 127.84 190.121 135.926Z" fill="#E6E6E6"/>
<path d="M194.625 132.773L194.225 138.518C194.152 139.565 193.667 140.54 192.877 141.231C192.087 141.923 191.056 142.273 190.008 142.206C189.322 142.162 188.659 141.941 188.084 141.564C187.509 141.187 187.041 140.667 186.727 140.056C186.413 139.444 186.263 138.761 186.292 138.074C186.321 137.387 186.528 136.719 186.893 136.136L190.121 130.971C192.028 123.536 190.515 112.827 188.319 101.465L197.328 98.9875C198.601 108.493 197.168 120.185 194.625 132.773Z" fill="#FFB8B8"/>
<path d="M180.169 60.3449C180.169 60.3449 181.545 57.3165 177.966 55.9399C177.966 55.9399 174.938 50.9843 168.881 54.2881C168.881 54.2881 164.751 55.9399 164.751 60.3449C164.751 64.7498 163.375 65.5757 163.375 65.5757C163.375 65.5757 165.425 63.4727 165.975 61.8209C166.526 60.169 170.808 59.7942 172.46 61.4461C174.112 63.098 178.241 62.8227 178.241 62.8227L177.966 68.8795C177.966 68.8795 179.343 65.3004 179.893 65.3004C180.444 65.3004 180.995 60.3449 180.169 60.3449Z" fill="#2F2E41"/>
<path d="M200.482 99.2127L185.391 103.492V77.1398L187.394 77.7879C189.144 78.3541 190.734 79.3285 192.033 80.6307C193.332 81.9328 194.302 83.5253 194.864 85.2767L200.482 99.2127Z" fill="#E6E6E6"/>
<path d="M256.898 199.214H69.5421V199.832H256.898V199.214Z" fill="#E6E6E6"/>
<path d="M211.017 149.324C215.113 155.113 216.195 188.065 216.436 198.628C216.442 198.866 216.448 199.092 216.451 199.305H226.819C226.946 199.079 227.063 198.857 227.175 198.628C233.32 186.498 229.91 171.954 229.731 171.219C230.198 173.531 228.087 180.232 225.7 186.724C224.244 166.764 211.796 150.331 211.017 149.324Z" fill="#E6E6E6"/>
</g>
<defs>
<clipPath id="clip0_2_237">
<rect width="256.898" height="200" fill="white"/>
</clipPath>
</defs>
</svg>
