<svg width="40" height="40" viewBox="0 0 40 40" fill="none" xmlns="http://www.w3.org/2000/svg">
<g clip-path="url(#clip0_16_5)">
<path d="M31.1111 24.4444H33.3333V33.3333H24.4444V31.1111H22.2222V35.5555H35.5555V22.2222H31.1111V24.4444Z" fill="#0B193E"/>
<path d="M15.5554 33.3333H6.66656V24.4444H8.88878V22.2222H4.44434V35.5555H17.7777V31.1111H15.5554V33.3333Z" fill="#0B193E"/>
<path d="M8.88878 15.5556H6.66656V6.66668H15.5554V8.8889H17.7777V4.44446H4.44434V17.7778H8.88878V15.5556Z" fill="#0B193E"/>
<path d="M18.8888 12.2222H12.2222V18.8888H18.8888V12.2222Z" fill="#0B193E"/>
<path d="M18.8888 21.1111H12.2222V27.7778H18.8888V21.1111Z" fill="#0B193E"/>
<path d="M27.778 21.1111H21.1113V27.7778H27.778V21.1111Z" fill="#01C2CF"/>
<path d="M27.778 17.1111H24.7002C23.9746 17.1184 23.26 16.933 22.6295 16.5738C21.999 16.2147 21.4751 15.6946 21.1113 15.0667V14.9556V18.8889H27.778V17.1111Z" fill="#0B193E"/>
<path d="M24.9444 4.44446H22.2222V8.8889H22.3777L24.9444 4.44446Z" fill="#0B193E"/>
<path d="M35.5558 17.1111H31.1113V17.7778H35.5558V17.1111Z" fill="#0B193E"/>
<path d="M29.8334 1.26665L23.4778 12.2222C23.33 12.4392 23.2451 12.693 23.2326 12.9553C23.2201 13.2176 23.2804 13.4783 23.407 13.7084C23.5336 13.9385 23.7214 14.1291 23.9496 14.259C24.1778 14.3889 24.4376 14.4531 24.7 14.4444H37.4223C37.6847 14.4531 37.9445 14.3889 38.1727 14.259C38.4009 14.1291 38.5887 13.9385 38.7153 13.7084C38.8418 13.4783 38.9022 13.2176 38.8897 12.9553C38.8772 12.693 38.7923 12.4392 38.6445 12.2222L32.2889 1.26665C32.1636 1.05227 31.9843 0.87444 31.7689 0.75086C31.5535 0.62728 31.3095 0.562256 31.0611 0.562256C30.8128 0.562256 30.5688 0.62728 30.3534 0.75086C30.138 0.87444 29.9587 1.05227 29.8334 1.26665Z" fill="#01C2CF"/>
</g>
<defs>
<clipPath id="clip0_16_5">
<rect width="40" height="40" fill="white"/>
</clipPath>
</defs>
</svg>
