<svg width="40" height="40" viewBox="0 0 40 40" fill="none" xmlns="http://www.w3.org/2000/svg">
<path fill-rule="evenodd" clip-rule="evenodd" d="M27.7406 34.1381L32.1619 37.9725C32.4231 38.1981 32.8175 38.17 33.0438 37.9094L35.3069 35.2994C35.5331 35.0387 35.505 34.6438 35.2444 34.4175L30.8225 30.5837L32.9587 28.1194C33.1194 27.935 33.1569 27.6731 33.0556 27.4506C32.9537 27.2281 32.7319 27.085 32.4869 27.085L23.9156 27.0831C23.7344 27.0831 23.5619 27.1619 23.4431 27.2988C23.3244 27.4356 23.2706 27.6175 23.2969 27.7969L24.5131 36.2819C24.5475 36.5238 24.7206 36.7237 24.9556 36.7925C25.19 36.8619 25.4437 36.7875 25.6037 36.6025L27.7406 34.1381ZM28.0869 32.7844C27.8262 32.5581 27.4319 32.5863 27.2056 32.8475L25.5563 34.7494L24.6362 28.3331L31.1181 28.335L29.4688 30.2369C29.2425 30.4981 29.2706 30.8925 29.5313 31.1188L33.9531 34.9525L32.5087 36.6181L28.0869 32.7844ZM1.875 21.25V30.625C1.875 31.1225 2.0725 31.5994 2.42437 31.9506C2.77562 32.3025 3.2525 32.5 3.75 32.5C8.03625 32.5 21.875 32.5 21.875 32.5C22.22 32.5 22.5 32.22 22.5 31.875C22.5 31.53 22.22 31.25 21.875 31.25C21.875 31.25 8.03625 31.25 3.75 31.25C3.58438 31.25 3.425 31.1844 3.30813 31.0669C3.19063 30.95 3.125 30.7906 3.125 30.625V21.25C3.125 20.905 2.845 20.625 2.5 20.625C2.155 20.625 1.875 20.905 1.875 21.25ZM1.875 3.75V18.75C1.875 19.095 2.155 19.375 2.5 19.375C2.845 19.375 3.125 19.095 3.125 18.75V7.5H18.75C19.095 7.5 19.375 7.22 19.375 6.875C19.375 6.53 19.095 6.25 18.75 6.25H3.125V3.75C3.125 3.405 3.405 3.125 3.75 3.125H35.9375C36.2825 3.125 36.5625 3.405 36.5625 3.75V6.25H21.25C20.905 6.25 20.625 6.53 20.625 6.875C20.625 7.22 20.905 7.5 21.25 7.5H36.5625V30.625C36.5625 30.97 36.2825 31.25 35.9375 31.25H34.375C34.03 31.25 33.75 31.53 33.75 31.875C33.75 32.22 34.03 32.5 34.375 32.5H35.9375C36.9731 32.5 37.8125 31.6606 37.8125 30.625V3.75C37.8125 2.71438 36.9731 1.875 35.9375 1.875H3.75C2.71438 1.875 1.875 2.71438 1.875 3.75ZM13.125 18.4375C13.125 18.0925 12.845 17.8125 12.5 17.8125H5.625C5.28 17.8125 5 18.0925 5 18.4375V25.3125C5 25.6575 5.28 25.9375 5.625 25.9375H12.5C12.845 25.9375 13.125 25.6575 13.125 25.3125V18.4375ZM15 25H33.125C33.47 25 33.75 24.72 33.75 24.375C33.75 24.03 33.47 23.75 33.125 23.75H15C14.655 23.75 14.375 24.03 14.375 24.375C14.375 24.72 14.655 25 15 25ZM11.875 19.0625V24.6875H6.25V19.0625H11.875ZM15 22.5H33.125C33.47 22.5 33.75 22.22 33.75 21.875C33.75 21.53 33.47 21.25 33.125 21.25H15C14.655 21.25 14.375 21.53 14.375 21.875C14.375 22.22 14.655 22.5 15 22.5ZM15 20H33.125C33.47 20 33.75 19.72 33.75 19.375C33.75 19.03 33.47 18.75 33.125 18.75H15C14.655 18.75 14.375 19.03 14.375 19.375C14.375 19.72 14.655 20 15 20ZM13.125 8.75C13.125 8.405 12.845 8.125 12.5 8.125H5.625C5.28 8.125 5 8.405 5 8.75V15.625C5 15.97 5.28 16.25 5.625 16.25H12.5C12.845 16.25 13.125 15.97 13.125 15.625V8.75ZM15 15.625H33.125C33.47 15.625 33.75 15.345 33.75 15C33.75 14.655 33.47 14.375 33.125 14.375H15C14.655 14.375 14.375 14.655 14.375 15C14.375 15.345 14.655 15.625 15 15.625ZM11.875 9.375V15H6.25V9.375H11.875ZM7.04 12.4769L8.6025 14.1731C8.73625 14.3181 8.93 14.3919 9.12625 14.3719C9.32188 14.3519 9.49688 14.2406 9.59813 14.0713L11.4731 10.9463C11.6506 10.6506 11.555 10.2662 11.2588 10.0894C10.9631 9.91187 10.5787 10.0075 10.4019 10.3037L8.95625 12.7119L7.96 11.63C7.72625 11.3762 7.33 11.36 7.07688 11.5937C6.82313 11.8275 6.80688 12.2231 7.04 12.4769ZM15 13.125H33.125C33.47 13.125 33.75 12.845 33.75 12.5C33.75 12.155 33.47 11.875 33.125 11.875H15C14.655 11.875 14.375 12.155 14.375 12.5C14.375 12.845 14.655 13.125 15 13.125ZM15 10.625H33.125C33.47 10.625 33.75 10.345 33.75 10C33.75 9.655 33.47 9.375 33.125 9.375H15C14.655 9.375 14.375 9.655 14.375 10C14.375 10.345 14.655 10.625 15 10.625ZM5 4.0625C5.345 4.0625 5.625 4.3425 5.625 4.6875C5.625 5.0325 5.345 5.3125 5 5.3125C4.655 5.3125 4.375 5.0325 4.375 4.6875C4.375 4.3425 4.655 4.0625 5 4.0625ZM7.5 4.0625C7.845 4.0625 8.125 4.3425 8.125 4.6875C8.125 5.0325 7.845 5.3125 7.5 5.3125C7.155 5.3125 6.875 5.0325 6.875 4.6875C6.875 4.3425 7.155 4.0625 7.5 4.0625ZM10 4.0625C10.345 4.0625 10.625 4.3425 10.625 4.6875C10.625 5.0325 10.345 5.3125 10 5.3125C9.655 5.3125 9.375 5.0325 9.375 4.6875C9.375 4.3425 9.655 4.0625 10 4.0625Z" fill="#0B193E"/>
<path fill-rule="evenodd" clip-rule="evenodd" d="M27.7904 34.0632L32.2117 37.8975C32.4729 38.1232 32.8673 38.095 33.0936 37.8344L35.3567 35.2244C35.5829 34.9638 35.5548 34.5688 35.2942 34.3426L30.8723 30.5088L33.0086 28.0444C33.1692 27.86 33.2067 27.5982 33.1054 27.3757C33.0036 27.1532 32.7817 27.01 32.5367 27.01L23.9654 27.0082C23.7842 27.0082 23.6117 27.0869 23.4929 27.2238C23.3742 27.3607 23.3204 27.5425 23.3467 27.7219L24.5629 36.2069C24.5973 36.4488 24.7704 36.6488 25.0054 36.7175C25.2398 36.7869 25.4936 36.7125 25.6536 36.5275L27.7904 34.0632ZM28.1367 32.7094C27.8761 32.4832 27.4817 32.5113 27.2554 32.7725L25.6061 34.6744L24.6861 28.2582L31.1679 28.26L29.5186 30.1619C29.2923 30.4232 29.3204 30.8175 29.5811 31.0438L34.0029 34.8775L32.5586 36.5432L28.1367 32.7094ZM13.1748 8.67505C13.1748 8.33005 12.8948 8.05005 12.5498 8.05005H5.6748C5.3298 8.05005 5.0498 8.33005 5.0498 8.67505V15.55C5.0498 15.895 5.3298 16.175 5.6748 16.175H12.5498C12.8948 16.175 13.1748 15.895 13.1748 15.55V8.67505ZM11.9248 9.30005V14.925H6.2998V9.30005H11.9248ZM7.0898 12.4019L8.6523 14.0982C8.78605 14.2432 8.97981 14.3169 9.17606 14.2969C9.37168 14.2769 9.54668 14.1657 9.64793 13.9963L11.5229 10.8713C11.7004 10.5757 11.6048 10.1913 11.3086 10.0144C11.0129 9.83692 10.6286 9.93255 10.4517 10.2288L9.00605 12.6369L8.0098 11.555C7.77605 11.3013 7.3798 11.285 7.12668 11.5188C6.87293 11.7525 6.85668 12.1482 7.0898 12.4019Z" fill="#CFA400"/>
</svg>
