<svg width="37" height="38" viewBox="0 0 37 38" fill="none" xmlns="http://www.w3.org/2000/svg">
<path fill-rule="evenodd" clip-rule="evenodd" d="M26.7406 33.1381L31.1619 36.9725C31.4231 37.1981 31.8175 37.17 32.0438 36.9094L34.3069 34.2994C34.5331 34.0387 34.505 33.6438 34.2444 33.4175L29.8225 29.5837L31.9587 27.1194C32.1194 26.935 32.1569 26.6731 32.0556 26.4506C31.9537 26.2281 31.7319 26.085 31.4869 26.085L22.9156 26.0831C22.7344 26.0831 22.5619 26.1619 22.4431 26.2988C22.3244 26.4356 22.2706 26.6175 22.2969 26.7969L23.5131 35.2819C23.5475 35.5238 23.7206 35.7237 23.9556 35.7925C24.19 35.8619 24.4437 35.7875 24.6037 35.6025L26.7406 33.1381ZM27.0869 31.7844C26.8262 31.5581 26.4319 31.5863 26.2056 31.8475L24.5563 33.7494L23.6362 27.3331L30.1181 27.335L28.4688 29.2369C28.2425 29.4981 28.2706 29.8925 28.5313 30.1188L32.9531 33.9525L31.5087 35.6181L27.0869 31.7844ZM0.875 20.25V29.625C0.875 30.1225 1.0725 30.5994 1.42437 30.9506C1.77562 31.3025 2.2525 31.5 2.75 31.5C7.03625 31.5 20.875 31.5 20.875 31.5C21.22 31.5 21.5 31.22 21.5 30.875C21.5 30.53 21.22 30.25 20.875 30.25C20.875 30.25 7.03625 30.25 2.75 30.25C2.58438 30.25 2.425 30.1844 2.30813 30.0669C2.19063 29.95 2.125 29.7906 2.125 29.625V20.25C2.125 19.905 1.845 19.625 1.5 19.625C1.155 19.625 0.875 19.905 0.875 20.25ZM0.875 2.75V17.75C0.875 18.095 1.155 18.375 1.5 18.375C1.845 18.375 2.125 18.095 2.125 17.75V6.5H17.75C18.095 6.5 18.375 6.22 18.375 5.875C18.375 5.53 18.095 5.25 17.75 5.25H2.125V2.75C2.125 2.405 2.405 2.125 2.75 2.125H34.9375C35.2825 2.125 35.5625 2.405 35.5625 2.75V5.25H20.25C19.905 5.25 19.625 5.53 19.625 5.875C19.625 6.22 19.905 6.5 20.25 6.5H35.5625V29.625C35.5625 29.97 35.2825 30.25 34.9375 30.25H33.375C33.03 30.25 32.75 30.53 32.75 30.875C32.75 31.22 33.03 31.5 33.375 31.5H34.9375C35.9731 31.5 36.8125 30.6606 36.8125 29.625V2.75C36.8125 1.71438 35.9731 0.875 34.9375 0.875H2.75C1.71438 0.875 0.875 1.71438 0.875 2.75ZM12.125 17.4375C12.125 17.0925 11.845 16.8125 11.5 16.8125H4.625C4.28 16.8125 4 17.0925 4 17.4375V24.3125C4 24.6575 4.28 24.9375 4.625 24.9375H11.5C11.845 24.9375 12.125 24.6575 12.125 24.3125V17.4375ZM14 24H32.125C32.47 24 32.75 23.72 32.75 23.375C32.75 23.03 32.47 22.75 32.125 22.75H14C13.655 22.75 13.375 23.03 13.375 23.375C13.375 23.72 13.655 24 14 24ZM10.875 18.0625V23.6875H5.25V18.0625H10.875ZM14 21.5H32.125C32.47 21.5 32.75 21.22 32.75 20.875C32.75 20.53 32.47 20.25 32.125 20.25H14C13.655 20.25 13.375 20.53 13.375 20.875C13.375 21.22 13.655 21.5 14 21.5ZM14 19H32.125C32.47 19 32.75 18.72 32.75 18.375C32.75 18.03 32.47 17.75 32.125 17.75H14C13.655 17.75 13.375 18.03 13.375 18.375C13.375 18.72 13.655 19 14 19ZM12.125 7.75C12.125 7.405 11.845 7.125 11.5 7.125H4.625C4.28 7.125 4 7.405 4 7.75V14.625C4 14.97 4.28 15.25 4.625 15.25H11.5C11.845 15.25 12.125 14.97 12.125 14.625V7.75ZM14 14.625H32.125C32.47 14.625 32.75 14.345 32.75 14C32.75 13.655 32.47 13.375 32.125 13.375H14C13.655 13.375 13.375 13.655 13.375 14C13.375 14.345 13.655 14.625 14 14.625ZM10.875 8.375V14H5.25V8.375H10.875ZM6.04 11.4769L7.6025 13.1731C7.73625 13.3181 7.93 13.3919 8.12625 13.3719C8.32188 13.3519 8.49688 13.2406 8.59813 13.0713L10.4731 9.94625C10.6506 9.65063 10.555 9.26625 10.2588 9.08937C9.96313 8.91187 9.57875 9.0075 9.40187 9.30375L7.95625 11.7119L6.96 10.63C6.72625 10.3762 6.33 10.36 6.07688 10.5937C5.82313 10.8275 5.80688 11.2231 6.04 11.4769ZM14 12.125H32.125C32.47 12.125 32.75 11.845 32.75 11.5C32.75 11.155 32.47 10.875 32.125 10.875H14C13.655 10.875 13.375 11.155 13.375 11.5C13.375 11.845 13.655 12.125 14 12.125ZM14 9.625H32.125C32.47 9.625 32.75 9.345 32.75 9C32.75 8.655 32.47 8.375 32.125 8.375H14C13.655 8.375 13.375 8.655 13.375 9C13.375 9.345 13.655 9.625 14 9.625ZM4 3.0625C4.345 3.0625 4.625 3.3425 4.625 3.6875C4.625 4.0325 4.345 4.3125 4 4.3125C3.655 4.3125 3.375 4.0325 3.375 3.6875C3.375 3.3425 3.655 3.0625 4 3.0625ZM6.5 3.0625C6.845 3.0625 7.125 3.3425 7.125 3.6875C7.125 4.0325 6.845 4.3125 6.5 4.3125C6.155 4.3125 5.875 4.0325 5.875 3.6875C5.875 3.3425 6.155 3.0625 6.5 3.0625ZM9 3.0625C9.345 3.0625 9.625 3.3425 9.625 3.6875C9.625 4.0325 9.345 4.3125 9 4.3125C8.655 4.3125 8.375 4.0325 8.375 3.6875C8.375 3.3425 8.655 3.0625 9 3.0625Z" fill="#0B193E"/>
<path fill-rule="evenodd" clip-rule="evenodd" d="M26.7904 33.0632L31.2117 36.8975C31.4729 37.1232 31.8673 37.095 32.0936 36.8344L34.3567 34.2244C34.5829 33.9638 34.5548 33.5688 34.2942 33.3426L29.8723 29.5088L32.0086 27.0444C32.1692 26.86 32.2067 26.5982 32.1054 26.3757C32.0036 26.1532 31.7817 26.01 31.5367 26.01L22.9654 26.0082C22.7842 26.0082 22.6117 26.0869 22.4929 26.2238C22.3742 26.3607 22.3204 26.5425 22.3467 26.7219L23.5629 35.2069C23.5973 35.4488 23.7704 35.6488 24.0054 35.7175C24.2398 35.7869 24.4936 35.7125 24.6536 35.5275L26.7904 33.0632ZM27.1367 31.7094C26.8761 31.4832 26.4817 31.5113 26.2554 31.7725L24.6061 33.6744L23.6861 27.2582L30.1679 27.26L28.5186 29.1619C28.2923 29.4232 28.3204 29.8175 28.5811 30.0438L33.0029 33.8775L31.5586 35.5432L27.1367 31.7094ZM12.1748 7.67505C12.1748 7.33005 11.8948 7.05005 11.5498 7.05005H4.6748C4.3298 7.05005 4.0498 7.33005 4.0498 7.67505V14.55C4.0498 14.895 4.3298 15.175 4.6748 15.175H11.5498C11.8948 15.175 12.1748 14.895 12.1748 14.55V7.67505ZM10.9248 8.30005V13.925H5.2998V8.30005H10.9248ZM6.0898 11.4019L7.6523 13.0982C7.78605 13.2432 7.97981 13.3169 8.17606 13.2969C8.37168 13.2769 8.54668 13.1657 8.64793 12.9963L10.5229 9.8713C10.7004 9.57567 10.6048 9.1913 10.3086 9.01442C10.0129 8.83692 9.62855 8.93255 9.45168 9.2288L8.00605 11.6369L7.0098 10.555C6.77605 10.3013 6.3798 10.285 6.12668 10.5188C5.87293 10.7525 5.85668 11.1482 6.0898 11.4019Z" fill="#01C2CF"/>
</svg>
